<svg xmlns="http://www.w3.org/2000/svg" xmlns:xlink="http://www.w3.org/1999/xlink" version="1.1" x="0px" y="0px" viewBox="0 0 100 125" enable-background="new 0 0 100 100" xml:space="preserve"><title>Hand_05</title><path d="M78.346,56.755v-32.23c-0.014-3.419-2.796-6.179-6.215-6.165c-1.116,0.004-2.209,0.31-3.165,0.885v-1  c-0.019-3.424-2.81-6.185-6.234-6.166c-1.12,0.006-2.218,0.316-3.176,0.896v-0.79c-0.138-3.427-3.027-6.093-6.454-5.956  c-3.234,0.13-5.826,2.722-5.956,5.956v0.71c-0.964-0.564-2.063-0.854-3.18-0.84c-3.321,0.038-5.995,2.739-6,6.06v25.09l-1.53-1.6  c-3.576-3.728-9.464-3.949-13.31-0.5l-1,1c-0.588,0.553-0.632,1.473-0.1,2.08l19.1,21.84c0.974,1.244,2.134,2.33,3.44,3.22v7.53  h-1.22c-1.85-0.017-3.363,1.47-3.38,3.32c0,0.01,0,0.02,0,0.03v10.3c0,1.846,1.494,3.344,3.34,3.35h29.66  c1.842-0.011,3.33-1.508,3.33-3.35v-10.3c0-1.842-1.488-3.339-3.33-3.35h-1.25v-7.53C75.855,66.435,78.337,61.759,78.346,56.755z   M43.436,64.115l-18.27-20.84c2.644-2.313,6.64-2.137,9.07,0.4l6.89,7.22c0.283,0.294,0.672,0.46,1.08,0.46  c0.318,0.012,0.636-0.008,0.95-0.06c4.953-1.481,10.168,1.334,11.649,6.287c0,0.001,0.001,0.002,0.001,0.003  c0.237,0.795,1.075,1.247,1.87,1.01c0.795-0.237,1.247-1.075,1.01-1.87c-1.893-6.354-8.468-10.076-14.89-8.43l-1.86-2v-28.18  c0-1.709,1.386-3.095,3.095-3.095c1.709,0,3.095,1.386,3.095,3.095v19.78h3v-25.71c0.099-1.77,1.614-3.125,3.384-3.026  c1.632,0.091,2.935,1.394,3.026,3.026v25.71h3v-19.67c0.099-1.77,1.614-3.125,3.384-3.026c1.632,0.091,2.935,1.394,3.026,3.026  v19.67h3v-13.37c0-1.765,1.43-3.195,3.195-3.195s3.195,1.43,3.195,3.195v32.23c-0.06,6.734-5.546,12.157-12.28,12.14h-9.83  C49.396,68.913,45.777,67.146,43.436,64.115z M73.266,80.115v10.3c0.006,0.188-0.142,0.344-0.33,0.35c0,0,0,0,0,0h-29.59  c-0.186,0.022-0.356-0.111-0.378-0.298c-0.002-0.014-0.002-0.028-0.002-0.042v-10.3c0-0.189,0.151-0.345,0.34-0.35h29.66  c0.176,0.021,0.306,0.173,0.3,0.35V80.115z M68.716,76.765h-21.15v-5.92c1.804,0.704,3.724,1.06,5.66,1.05h9.84  c1.939-0.001,3.86-0.371,5.66-1.09v5.93L68.716,76.765z"/><text x="0" y="115" fill="#000000" font-size="5px" font-weight="bold" font-family="'Helvetica Neue', Helvetica, Arial-Unicode, Arial, Sans-serif">Created by Daouna Jeong</text><text x="0" y="120" fill="#000000" font-size="5px" font-weight="bold" font-family="'Helvetica Neue', Helvetica, Arial-Unicode, Arial, Sans-serif">from the Noun Project</text></svg>