<svg xmlns="http://www.w3.org/2000/svg" xmlns:xlink="http://www.w3.org/1999/xlink" version="1.1" x="0px" y="0px" viewBox="0 0 50.4 63" enable-background="new 0 0 50.4 50.4" xml:space="preserve"><g><path d="M26.903,4.766c2.279,0,4.13,1.85,4.13,4.129s-1.851,4.123-4.13,4.123c-2.276,0-4.123-1.843-4.123-4.123   C22.781,6.615,24.627,4.766,26.903,4.766z"/><path d="M45.514,23.5c-2.161,0.005-3.981,1.437-4.623,3.396c-0.086-1.563-1.488-3.699-3.665-3.705v-3.864   c0-3.158-2.263-4.95-5.358-4.95l-15.69,0.006V5.346c0-1.271-1.03-2.301-2.301-2.301c-1.271,0-2.301,1.03-2.301,2.301v11.337   c0,1.27,1.03,2.301,2.301,2.301h7.013V23.2c-2.437,0.097-4.319,1.042-5.281,2.65c-0.369,0.509-3.266,4.83-4.402,6.526l-6-3.394   c-0.517-0.289-1.101-0.441-1.69-0.441c-1.258,0-2.42,0.684-3.033,1.784c-0.932,1.671-0.33,3.79,1.339,4.721l8.798,4.957   c1.541,0.855,3.61,0.34,4.562-1.083l3.553-5.021c-0.008,0.083-0.025,0.162-0.025,0.247v13.753c0,1.381,1.12,2.501,2.501,2.501   s2.501-1.12,2.501-2.501V36.647h6.441v11.252c0,1.381,1.12,2.501,2.501,2.501c1.382,0,2.501-1.12,2.501-2.501v-5.373   c0.476,1.044,1.522,1.773,2.738,1.773c1.661,0,3.014-1.353,3.014-3.014V29.936c0.659,1.929,2.468,3.334,4.607,3.34h0.005   c2.694-0.008,4.885-2.201,4.882-4.887C50.403,25.697,48.213,23.505,45.514,23.5z M32.106,20.699h1.271l0.002,2.488l-1.273-0.001   V20.699z M39.164,41.286c0,0.701-0.57,1.271-1.271,1.271s-1.271-0.57-1.271-1.271V30.551l-17.65-0.001l-5.224,7.383   c-0.483,0.723-1.517,0.973-2.277,0.551l-8.798-4.956c-0.833-0.466-1.133-1.521-0.669-2.354c0.448-0.806,1.549-1.117,2.349-0.673   l7.403,4.186l0.449-0.671c1.514-2.263,4.468-6.667,4.854-7.206c0.986-1.641,3.079-1.886,4.257-1.886h15.395   c0,0,0.282,0.008,0.505,0.008c1.189,0,1.948,1.393,1.948,2.121V41.286z M45.517,31.533c-1.729-0.006-3.14-1.419-3.147-3.142   c0.008-1.734,1.42-3.147,3.145-3.15c1.737,0.003,3.146,1.413,3.145,3.147C48.66,30.117,47.251,31.527,45.517,31.533z"/></g><text x="0" y="65.4" fill="#000000" font-size="5px" font-weight="bold" font-family="'Helvetica Neue', Helvetica, Arial-Unicode, Arial, Sans-serif">Created by Luis Prado</text><text x="0" y="70.4" fill="#000000" font-size="5px" font-weight="bold" font-family="'Helvetica Neue', Helvetica, Arial-Unicode, Arial, Sans-serif">from the Noun Project</text></svg>